<svg width="288" height="115" viewBox="0 0 288 115" fill="none" xmlns="http://www.w3.org/2000/svg">
<path d="M42.66 79.76C42.66 80.84 42.18 81.86 41.22 82.82C40.26 83.72 39.3 84.17 38.34 84.17C37.86 84.17 37.47 84.02 37.17 83.72C37.11 83.72 36.84 83.42 36.36 82.82C35.88 82.22 35.31 81.47 34.65 80.57C33.99 79.67 33.27 78.71 32.49 77.69C31.71 76.67 30.99 75.71 30.33 74.81C29.67 73.91 29.13 73.19 28.71 72.65C28.35 72.05 28.2 71.78 28.26 71.84C28.14 71.48 27.84 70.91 27.36 70.13C26.88 69.35 26.34 68.54 25.74 67.7C25.2 66.8 24.69 65.99 24.21 65.27C23.73 64.49 23.46 64.01 23.4 63.83C23.28 63.83 22.95 63.89 22.41 64.01C21.87 64.07 21.27 64.16 20.61 64.28C19.95 64.34 19.26 64.43 18.54 64.55C17.88 64.61 17.37 64.64 17.01 64.64H16.56C16.38 66.5 16.23 68.03 16.11 69.23C15.99 70.43 15.93 71.33 15.93 71.93V74.72C15.93 77.96 15.66 81.47 15.12 85.25C14.4 86.33 13.35 86.87 11.97 86.87C10.77 86.87 9.72 86.54 8.82 85.88C7.98 85.28 7.56 84.2 7.56 82.64C7.56 82.16 7.56 81.59 7.56 80.93C7.62 80.21 7.65 79.49 7.65 78.77C7.71 78.05 7.74 77.42 7.74 76.88C7.8 76.28 7.83 75.89 7.83 75.71V75.26L8.46 61.67C8.52 60.89 8.52 59.93 8.46 58.79C8.46 57.65 8.52 56.33 8.64 54.83L9.36 49.43C9.72 47.57 9.9 45.98 9.9 44.66C9.9 44.24 9.87 43.85 9.81 43.49C9.81 43.07 9.78 42.65 9.72 42.23C9.72 42.23 9.81 41.18 9.99 39.08C10.05 37.64 10.32 36.47 10.8 35.57C11.28 34.67 12.42 34.22 14.22 34.22C15.48 34.22 16.74 34.43 18 34.85C19.2 34.73 20.25 34.67 21.15 34.67C22.11 34.67 22.92 34.67 23.58 34.67C24.18 34.67 24.72 34.7 25.2 34.76C25.68 34.76 26.16 34.82 26.64 34.94C27.12 35 27.66 35.12 28.26 35.3C28.86 35.42 29.58 35.6 30.42 35.84L34.38 38.54C36.6 40.28 38.07 42.02 38.79 43.76C39.57 45.5 39.96 47.33 39.96 49.25C39.96 50.57 39.9 51.71 39.78 52.67C39.72 53.57 39.42 54.47 38.88 55.37C38.34 56.27 37.5 57.2 36.36 58.16C35.22 59.12 33.6 60.32 31.5 61.76C32.88 63.5 34.44 66.08 36.18 69.5C37.26 70.34 39.42 73.76 42.66 79.76ZM31.59 51.05C31.65 50.81 31.68 50.48 31.68 50.06C31.68 49.46 31.62 48.86 31.5 48.26C31.38 47.6 31.11 46.97 30.69 46.37C30.27 45.71 29.64 45.08 28.8 44.48C28.02 43.82 26.91 43.19 25.47 42.59C24.21 42.11 23.16 41.87 22.32 41.87C22.08 41.93 21.75 41.99 21.33 42.05C20.97 42.17 20.52 42.29 19.98 42.41C19.44 42.47 18.84 42.56 18.18 42.68C18.24 43.04 18.27 43.4 18.27 43.76C18.27 44.06 18.21 44.66 18.09 45.56C18.03 46.46 17.91 47.75 17.73 49.43C17.55 51.11 17.34 53.45 17.1 56.45C17.34 56.51 17.58 56.54 17.82 56.54C18.06 56.54 18.3 56.54 18.54 56.54C19.68 56.54 20.94 56.39 22.32 56.09C23.76 55.73 25.11 55.31 26.37 54.83C27.63 54.29 28.74 53.69 29.7 53.03C30.66 52.37 31.29 51.71 31.59 51.05Z" fill="#527ACA"/>
<path d="M77.35 79.4C75.43 81.32 73.27 82.94 70.87 84.26C68.47 85.64 66.04 86.33 63.58 86.33C61.36 86.33 58.51 85.97 55.03 85.25C53.83 84.47 52.63 83.54 51.43 82.46C50.23 81.32 49.15 80.09 48.19 78.77C47.23 77.39 46.45 75.92 45.85 74.36C45.25 72.74 44.95 71.09 44.95 69.41C44.95 68.93 44.98 68.3 45.04 67.52C45.1 66.68 45.16 65.87 45.22 65.09C45.34 64.25 45.43 63.53 45.49 62.93C45.55 62.33 45.58 62.03 45.58 62.03C46.78 60.11 48.04 58.22 49.36 56.36C50.74 54.44 52.66 52.76 55.12 51.32C59.02 50.48 61.84 50.06 63.58 50.06C64.48 50.06 65.26 50.12 65.92 50.24C66.58 50.3 67.21 50.48 67.81 50.78C68.47 51.02 69.1 51.41 69.7 51.95C70.36 52.49 71.11 53.18 71.95 54.02C72.91 55.04 73.66 55.73 74.2 56.09C74.8 56.45 75.1 56.78 75.1 57.08C75.1 62.6 73.39 66.35 69.97 68.33C68.47 68.87 66.52 69.47 64.12 70.13C61.72 70.73 58.45 71.3 54.31 71.84C55.15 74.12 56.26 75.83 57.64 76.97C59.02 78.11 60.58 78.68 62.32 78.68C64.9 78.68 68.14 77.15 72.04 74.09C72.64 73.55 73.39 73.28 74.29 73.28C75.25 73.28 76.09 73.64 76.81 74.36C77.59 75.08 77.98 75.98 77.98 77.06C77.98 77.84 77.77 78.62 77.35 79.4ZM67.18 60.14C66.04 58.28 64.69 57.35 63.13 57.35C62.47 57.35 61.75 57.44 60.97 57.62C60.19 57.8 59.38 58.07 58.54 58.43C57.76 58.73 57.01 59.12 56.29 59.6C55.63 60.08 55.09 60.65 54.67 61.31L53.77 64.01C55.81 63.83 57.61 63.68 59.17 63.56C60.73 63.44 62.08 63.26 63.22 63.02C64.36 62.78 65.26 62.45 65.92 62.03C66.58 61.61 67 60.98 67.18 60.14Z" fill="white"/>
<path d="M108.92 67.36C107.78 69.76 105.92 71.68 103.34 73.12C100.76 74.5 97.88 75.19 94.7 75.19C94.28 75.19 93.59 75.13 92.63 75.01C91.67 74.89 90.59 74.65 89.39 74.29C88.25 73.93 87.05 73.45 85.79 72.85C84.59 72.19 83.48 71.35 82.46 70.33C81.44 69.25 80.6 67.96 79.94 66.46C79.28 64.96 78.95 63.19 78.95 61.15C78.89 58.45 79.25 55.99 80.03 53.77C80.87 51.55 82.19 49.3 83.99 47.02L86.87 43.33C90.23 41.05 94.01 39.91 98.21 39.91C100.49 39.91 102.29 40.33 103.61 41.17C104.99 42.01 105.68 43.21 105.68 44.77C105.68 45.97 105.23 46.96 104.33 47.74C103.49 48.46 102.38 48.82 101 48.82C100.94 48.82 100.7 48.79 100.28 48.73C99.92 48.61 99.5 48.49 99.02 48.37C98.54 48.25 98.06 48.16 97.58 48.1C97.1 47.98 96.71 47.92 96.41 47.92C95.03 47.92 93.44 48.64 91.64 50.08C89.9 51.52 88.52 53.8 87.5 56.92C87.08 58.24 86.87 59.32 86.87 60.16C86.87 61.84 87.32 63.16 88.22 64.12C89.18 65.08 90.23 65.83 91.37 66.37C92.51 66.85 93.56 67.18 94.52 67.36C95.48 67.48 95.99 67.54 96.05 67.54C96.89 67.54 97.73 67.3 98.57 66.82C99.41 66.34 100.16 65.8 100.82 65.2C101.54 64.6 102.11 64.09 102.53 63.67C102.95 63.19 103.13 62.95 103.07 62.95C103.67 62.41 104.36 62.14 105.14 62.14C106.1 62.14 106.97 62.65 107.75 63.67C108.59 64.63 109.01 65.62 109.01 66.64C109.01 66.94 108.98 67.18 108.92 67.36Z" fill="white"/>
<path d="M135.16 75.75C134.38 76.29 133.12 76.83 131.38 77.37C129.64 77.85 127.84 78.27 125.98 78.63L122.29 77.91C121.75 77.73 120.85 77.31 119.59 76.65C118.39 75.99 117.16 75 115.9 73.68C114.64 72.3 113.53 70.56 112.57 68.46C111.61 66.3 111.13 63.69 111.13 60.63C111.13 59.55 111.37 58.29 111.85 56.85C112.39 55.35 113.17 53.97 114.19 52.71C115.21 51.39 116.47 50.28 117.97 49.38C119.53 48.48 121.33 48.03 123.37 48.03C127.45 48.03 131.14 49.35 134.44 51.99C137.32 55.95 138.76 60.33 138.76 65.13C138.76 68.67 137.56 72.21 135.16 75.75ZM130.75 62.97C130.45 60.63 129.7 58.8 128.5 57.48C127.36 56.1 125.89 55.41 124.09 55.41C122.89 55.41 121.75 56.01 120.67 57.21C119.65 58.35 119.14 60.03 119.14 62.25C119.14 63.15 119.26 64.11 119.5 65.13C119.74 66.09 120.13 66.99 120.67 67.83C121.21 68.61 121.9 69.27 122.74 69.81C123.58 70.29 124.6 70.53 125.8 70.53C127.72 70.53 129.04 69.96 129.76 68.82C130.48 67.62 130.84 66.15 130.84 64.41C130.84 64.17 130.81 63.96 130.75 63.78C130.75 63.54 130.75 63.27 130.75 62.97Z" fill="white"/>
<path d="M175.97 69.82C175.91 71.62 175.85 73.06 175.79 74.14C175.73 75.16 175.64 76.03 175.52 76.75C175.46 77.41 175.31 78.01 175.07 78.55C174.89 79.09 174.62 79.75 174.26 80.53C173 83.41 171.05 85.63 168.41 87.19C165.77 88.75 162.41 89.53 158.33 89.53C156.89 89.53 155.75 89.53 154.91 89.53C154.07 89.53 153.14 89.38 152.12 89.08C151.16 88.78 149.93 88.27 148.43 87.55C146.93 86.77 144.8 85.66 142.04 84.22C139.88 83.08 138.8 81.64 138.8 79.9C138.8 78.82 139.16 77.86 139.88 77.02C140.6 76.12 141.53 75.61 142.67 75.49C146.99 76.87 149.96 78.31 151.58 79.81C153.74 80.77 156.35 81.25 159.41 81.25C161.99 81.25 164.06 80.5 165.62 79C165.86 78.34 166.1 77.41 166.34 76.21C166.64 75.01 166.79 73.57 166.79 71.89C166.79 70.57 166.4 69.49 165.62 68.65C164.84 67.75 163.85 66.97 162.65 66.31C161.45 65.65 160.1 65.05 158.6 64.51C157.16 63.97 155.78 63.4 154.46 62.8C153.44 62.38 152.42 61.9 151.4 61.36C150.38 60.82 149.36 60.13 148.34 59.29C145.76 54.91 144.47 51.82 144.47 50.02C144.47 45.52 147.14 41.23 152.48 37.15C157.46 35.29 160.85 34.36 162.65 34.36C163.31 34.36 164.18 34.6 165.26 35.08C166.34 35.56 167.39 36.16 168.41 36.88C169.49 37.6 170.39 38.41 171.11 39.31C171.89 40.15 172.28 40.99 172.28 41.83C172.28 42.85 171.86 43.75 171.02 44.53C170.24 45.25 169.22 45.61 167.96 45.61C167.84 45.61 167.51 45.43 166.97 45.07C166.43 44.71 165.77 44.32 164.99 43.9C164.27 43.48 163.52 43.09 162.74 42.73C162.02 42.37 161.42 42.19 160.94 42.19C159.92 42.19 158.93 42.43 157.97 42.91C157.07 43.39 156.26 43.99 155.54 44.71C154.82 45.43 154.25 46.24 153.83 47.14C153.41 47.98 153.2 48.76 153.2 49.48C153.2 50.86 153.62 52.09 154.46 53.17C155.3 54.25 156.32 55.12 157.52 55.78L163.19 57.76C164.63 58.3 166.04 58.99 167.42 59.83C168.8 60.67 170.06 61.63 171.2 62.71C172.34 63.73 173.33 64.87 174.17 66.13C175.01 67.33 175.61 68.56 175.97 69.82Z" fill="#527ACA"/>
<path d="M199.35 51.07C200.01 51.61 200.34 52.6 200.34 54.04C200.34 56.68 199.35 58 197.37 58H197.01C196.11 58.06 195.06 58.15 193.86 58.27C192.66 58.33 191.31 58.45 189.81 58.63C189.69 59.59 189.57 60.88 189.45 62.5C189.33 64.06 189.27 65.95 189.27 68.17C189.27 68.35 189.27 68.53 189.27 68.71C189.33 68.89 189.36 69.1 189.36 69.34V73.48C189.36 74.44 189.51 75.22 189.81 75.82C190.17 76.36 190.59 76.75 191.07 76.99L193.59 77.8C195.57 78.46 196.56 79.66 196.56 81.4C196.56 82.42 196.14 83.32 195.3 84.1C194.52 84.88 193.5 85.27 192.24 85.27C191.88 85.27 191.25 85.18 190.35 85C189.51 84.76 188.61 84.46 187.65 84.1C186.75 83.74 185.88 83.29 185.04 82.75C184.26 82.21 183.72 81.61 183.42 80.95C182.76 79.57 182.22 78.13 181.8 76.63C181.38 75.07 181.17 73.45 181.17 71.77C181.17 69.91 181.2 68.59 181.26 67.81C181.32 67.03 181.38 66.34 181.44 65.74C181.5 65.14 181.56 64.42 181.62 63.58C181.68 62.74 181.71 61.36 181.71 59.44C180.57 59.56 178.89 59.92 176.67 60.52C175.35 60.52 174.21 60.19 173.25 59.53C172.35 58.81 171.9 57.88 171.9 56.74C171.9 55.9 172.14 55.12 172.62 54.4C173.16 53.68 174.24 53.05 175.86 52.51C176.4 52.33 176.88 52.21 177.3 52.15C177.78 52.09 178.23 52.03 178.65 51.97C179.13 51.91 179.64 51.88 180.18 51.88C180.72 51.82 181.38 51.73 182.16 51.61C182.22 50.11 182.31 48.43 182.43 46.57C182.61 44.65 182.88 42.88 183.24 41.26C183.66 39.64 184.23 38.29 184.95 37.21C185.73 36.07 186.75 35.5 188.01 35.5C190.17 35.5 191.49 36.49 191.97 38.47C191.97 38.53 191.88 38.95 191.7 39.73C191.58 40.45 191.43 41.26 191.25 42.16C191.07 43.06 190.89 43.93 190.71 44.77C190.59 45.61 190.53 46.15 190.53 46.39L190.26 50.8C190.68 50.74 191.07 50.71 191.43 50.71C191.79 50.65 192.18 50.62 192.6 50.62H193.41C193.83 50.62 194.22 50.62 194.58 50.62C194.94 50.56 195.27 50.53 195.57 50.53C197.37 50.53 198.63 50.71 199.35 51.07Z" fill="white"/>
<path d="M223.16 82.75C222.38 83.29 221.12 83.83 219.38 84.37C217.64 84.85 215.84 85.27 213.98 85.63L210.29 84.91C209.75 84.73 208.85 84.31 207.59 83.65C206.39 82.99 205.16 82 203.9 80.68C202.64 79.3 201.53 77.56 200.57 75.46C199.61 73.3 199.13 70.69 199.13 67.63C199.13 66.55 199.37 65.29 199.85 63.85C200.39 62.35 201.17 60.97 202.19 59.71C203.21 58.39 204.47 57.28 205.97 56.38C207.53 55.48 209.33 55.03 211.37 55.03C215.45 55.03 219.14 56.35 222.44 58.99C225.32 62.95 226.76 67.33 226.76 72.13C226.76 75.67 225.56 79.21 223.16 82.75ZM218.75 69.97C218.45 67.63 217.7 65.8 216.5 64.48C215.36 63.1 213.89 62.41 212.09 62.41C210.89 62.41 209.75 63.01 208.67 64.21C207.65 65.35 207.14 67.03 207.14 69.25C207.14 70.15 207.26 71.11 207.5 72.13C207.74 73.09 208.13 73.99 208.67 74.83C209.21 75.61 209.9 76.27 210.74 76.81C211.58 77.29 212.6 77.53 213.8 77.53C215.72 77.53 217.04 76.96 217.76 75.82C218.48 74.62 218.84 73.15 218.84 71.41C218.84 71.17 218.81 70.96 218.75 70.78C218.75 70.54 218.75 70.27 218.75 69.97Z" fill="white"/>
<path d="M279.35 81.4C277.43 83.32 275.27 84.94 272.87 86.26C270.47 87.64 268.04 88.33 265.58 88.33C263.36 88.33 260.51 87.97 257.03 87.25C255.83 86.47 254.63 85.54 253.43 84.46C252.23 83.32 251.15 82.09 250.19 80.77C249.23 79.39 248.45 77.92 247.85 76.36C247.25 74.74 246.95 73.09 246.95 71.41C246.95 70.93 246.98 70.3 247.04 69.52C247.1 68.68 247.16 67.87 247.22 67.09C247.34 66.25 247.43 65.53 247.49 64.93C247.55 64.33 247.58 64.03 247.58 64.03C248.78 62.11 250.04 60.22 251.36 58.36C252.74 56.44 254.66 54.76 257.12 53.32C261.02 52.48 263.84 52.06 265.58 52.06C266.48 52.06 267.26 52.12 267.92 52.24C268.58 52.3 269.21 52.48 269.81 52.78C270.47 53.02 271.1 53.41 271.7 53.95C272.36 54.49 273.11 55.18 273.95 56.02C274.91 57.04 275.66 57.73 276.2 58.09C276.8 58.45 277.1 58.78 277.1 59.08C277.1 64.6 275.39 68.35 271.97 70.33C270.47 70.87 268.52 71.47 266.12 72.13C263.72 72.73 260.45 73.3 256.31 73.84C257.15 76.12 258.26 77.83 259.64 78.97C261.02 80.11 262.58 80.68 264.32 80.68C266.9 80.68 270.14 79.15 274.04 76.09C274.64 75.55 275.39 75.28 276.29 75.28C277.25 75.28 278.09 75.64 278.81 76.36C279.59 77.08 279.98 77.98 279.98 79.06C279.98 79.84 279.77 80.62 279.35 81.4ZM269.18 62.14C268.04 60.28 266.69 59.35 265.13 59.35C264.47 59.35 263.75 59.44 262.97 59.62C262.19 59.8 261.38 60.07 260.54 60.43C259.76 60.73 259.01 61.12 258.29 61.6C257.63 62.08 257.09 62.65 256.67 63.31L255.77 66.01C257.81 65.83 259.61 65.68 261.17 65.56C262.73 65.44 264.08 65.26 265.22 65.02C266.36 64.78 267.26 64.45 267.92 64.03C268.58 63.61 269 62.98 269.18 62.14Z" fill="white"/>
<path d="M253.51 42.4C254.47 43 254.95 44.14 254.95 45.82C254.95 47.08 254.62 48.16 253.96 49.06C253.3 49.96 252.4 50.41 251.26 50.41C250.54 50.41 249.79 50.23 249.01 49.87C248.29 49.45 247.51 49.24 246.67 49.24C245.95 49.24 245.23 49.39 244.51 49.69C243.85 49.93 243.07 50.5 242.17 51.4L239.47 54.1C239.47 54.52 239.47 54.94 239.47 55.36C239.53 55.78 239.56 56.23 239.56 56.71C239.56 57.43 239.53 58.18 239.47 58.96C239.47 59.74 239.44 60.58 239.38 61.48L240.19 69.67C240.01 72.43 238.6 73.81 235.96 73.81C234.58 73.81 233.56 73.39 232.9 72.55C232.24 71.65 231.79 70.42 231.55 68.86C231.31 67.3 231.19 65.47 231.19 63.37C231.25 61.27 231.25 58.96 231.19 56.44C231.07 52.66 230.98 50.77 230.92 50.77V50.86C230.68 49.96 230.5 49.18 230.38 48.52C230.26 47.8 230.2 47.17 230.2 46.63C230.2 45.55 230.59 44.68 231.37 44.02C232.15 43.3 233.29 42.94 234.79 42.94C235.75 42.94 236.89 43.69 238.21 45.19C239.59 44.11 240.64 43.3 241.36 42.76C242.14 42.22 242.77 41.83 243.25 41.59C243.79 41.35 244.3 41.23 244.78 41.23C245.26 41.17 245.89 41.14 246.67 41.14C247.33 41.08 247.93 41.11 248.47 41.23C249.07 41.35 249.7 41.47 250.36 41.59L253.51 42.4Z" fill="white"/>
<ellipse cx="277.915" cy="42.0826" rx="6.51942" ry="7.69358" transform="rotate(-39.2129 277.915 42.0826)" fill="#527ACA"/>
</svg>
